<svg xmlns="http://www.w3.org/2000/svg" aria-hidden="true" style="position:absolute;width:0;height:0;overflow:hidden">
  <symbol id="ph-user-circle" viewBox="0 0 256 256">
    <path d="M128,24A104,104,0,1,0,232,128,104.11,104.11,0,0,0,128,24ZM74.08,197.5a64,64,0,0,1,107.84,0,87.83,87.83,0,0,1-107.84,0ZM96,120a32,32,0,1,1,32,32A32,32,0,0,1,96,120Zm97.76,66.41a79.66,79.66,0,0,0-36.06-28.75,48,48,0,1,0-59.4,0,79.66,79.66,0,0,0-36.06,28.75,88,88,0,1,1,131.52,0Z"/>
  </symbol>

  <symbol id="ph-brain" viewBox="0 0 256 256">
    <path d="M248,124a56.11,56.11,0,0,0-32-50.61V72a48,48,0,0,0-88-26.49A48,48,0,0,0,40,72v1.39a56,56,0,0,0,0,101.2V176a48,48,0,0,0,88,26.49A48,48,0,0,0,216,176v-1.41A56.09,56.09,0,0,0,248,124ZM88,208a32,32,0,0,1-31.81-28.56A55.87,55.87,0,0,0,64,180h8a8,8,0,0,0,0-16H64A40,40,0,0,1,50.67,86.27,8,8,0,0,0,56,78.73V72a32,32,0,0,1,64,0v68.26A47.8,47.8,0,0,0,88,128a8,8,0,0,0,0,16,32,32,0,0,1,0,64Zm104-44h-8a8,8,0,0,0,0,16h8a55.87,55.87,0,0,0,7.81-.56A32,32,0,1,1,168,144a8,8,0,0,0,0-16,47.8,47.8,0,0,0-32,12.26V72a32,32,0,0,1,64,0v6.73a8,8,0,0,0,5.33,7.54A40,40,0,0,1,192,164Zm16-52a8,8,0,0,1-8,8h-4a36,36,0,0,1-36-36V80a8,8,0,0,1,16,0v4a20,20,0,0,0,20,20h4A8,8,0,0,1,208,112ZM60,120H56a8,8,0,0,1,0-16h4A20,20,0,0,0,80,84V80a8,8,0,0,1,16,0v4A36,36,0,0,1,60,120Z"/>
  </symbol>

  <symbol id="ph-toolbox" viewBox="0 0 256 256">
    <path d="M224,64H176V56a24,24,0,0,0-24-24H104A24,24,0,0,0,80,56v8H32A16,16,0,0,0,16,80V192a16,16,0,0,0,16,16H224a16,16,0,0,0,16-16V80A16,16,0,0,0,224,64ZM96,56a8,8,0,0,1,8-8h48a8,8,0,0,1,8,8v8H96ZM224,80v32H192v-8a8,8,0,0,0-16,0v8H80v-8a8,8,0,0,0-16,0v8H32V80Zm0,112H32V128H64v8a8,8,0,0,0,16,0v-8h96v8a8,8,0,0,0,16,0v-8h32v64Z"/>
  </symbol>

  <symbol id="ph-cow" viewBox="0 0 256 256">
    <path d="M104,192a8,8,0,0,1-8,8H80a8,8,0,0,1,0-16H96A8,8,0,0,1,104,192Zm72-8H160a8,8,0,0,0,0,16h16a8,8,0,0,0,0-16Zm-76-48a12,12,0,1,0-12-12A12,12,0,0,0,100,136Zm56,0a12,12,0,1,0-12-12A12,12,0,0,0,156,136Zm88.39-13.88A16,16,0,0,1,232,128H200v32a40,40,0,0,1-24,72H80a40,40,0,0,1-24-72V128H24A16,16,0,0,1,8.31,109,56.13,56.13,0,0,1,63.22,64h1.64A55.83,55.83,0,0,1,48,24a8,8,0,0,1,16,0,40,40,0,0,0,40,40h48a40,40,0,0,0,40-40,8,8,0,0,1,16,0,55.83,55.83,0,0,1-16.86,40h1.64a56.13,56.13,0,0,1,54.91,45A15.82,15.82,0,0,1,244.39,122.12ZM72,152.8a40.57,40.57,0,0,1,8-.8h96a40.57,40.57,0,0,1,8,.8V104a24,24,0,0,0-24-24H96a24,24,0,0,0-24,24ZM56,112v-8a39.81,39.81,0,0,1,8-24h-.8A40.09,40.09,0,0,0,24,112Zm144,80a24,24,0,0,0-24-24H80a24,24,0,0,0,0,48h96A24,24,0,0,0,200,192Zm32-80a40.08,40.08,0,0,0-39.2-32H192a39.81,39.81,0,0,1,8,24v8Z"/>
  </symbol>

  <symbol id="ph-envelope-simple-bold" viewBox="0 0 256 256">
    <path d="M224,44H32A12,12,0,0,0,20,56V192a20,20,0,0,0,20,20H216a20,20,0,0,0,20-20V56A12,12,0,0,0,224,44ZM193.15,68,128,127.72,62.85,68ZM44,188V83.28l75.89,69.57a12,12,0,0,0,16.22,0L212,83.28V188Z"/>
  </symbol>

  <symbol id="ph-github-logo-bold" viewBox="0 0 256 256">
    <path d="M212.62,75.17A63.7,63.7,0,0,0,206.39,26,12,12,0,0,0,196,20a63.71,63.71,0,0,0-50,24H126A63.71,63.71,0,0,0,76,20a12,12,0,0,0-10.39,6,63.7,63.7,0,0,0-6.23,49.17A61.5,61.5,0,0,0,52,104v8a60.1,60.1,0,0,0,45.76,58.28A43.66,43.66,0,0,0,92,192v4H76a20,20,0,0,1-20-20,44.05,44.05,0,0,0-44-44,12,12,0,0,0,0,24,20,20,0,0,1,20,20,44.05,44.05,0,0,0,44,44H92v12a12,12,0,0,0,24,0V192a20,20,0,0,1,40,0v40a12,12,0,0,0,24,0V192a43.66,43.66,0,0,0-5.76-21.72A60.1,60.1,0,0,0,220,112v-8A61.5,61.5,0,0,0,212.62,75.17ZM196,112a36,36,0,0,1-36,36H112a36,36,0,0,1-36-36v-8a37.87,37.87,0,0,1,6.13-20.12,11.65,11.65,0,0,0,1.58-11.49,39.9,39.9,0,0,1-.4-27.72,39.87,39.87,0,0,1,26.41,17.8A12,12,0,0,0,119.82,68h32.35a12,12,0,0,0,10.11-5.53,39.84,39.84,0,0,1,26.41-17.8,39.9,39.9,0,0,1-.4,27.72,12,12,0,0,0,1.61,11.53A37.85,37.85,0,0,1,196,104Z"/>
  </symbol>
</svg>
